# xmcd CD database file generated by LOLA_Freedb v0.9beta0
#
# Track frame offsets:
#      150
#      15262
#      30592
#      42817
#      59462
#      76885
#      88340
#      105290
#      121677
#      136087
#      151142
#
# Disc length: 2160 seconds
#
# Revision: 3
# Processed by: cddbd v1.5.1PL2 Copyright (c) Steve Scherf et al.
# Submitted via: LOLA_Freedb v0.9beta0
#
DISCID=71086e0b
DTITLE=Merle Haggard - Chill Factor
DYEAR=1987
DGENRE=Country
TTITLE0=Merle Haggard - Chill Factor
TTITLE1=Merle Haggard - Twinkle, Twinkle Lucky Star
TTITLE2=Man From Another Time
TTITLE3=We Never Touch At All
TTITLE4=You Babe
TTITLE5=Thanking The Good Lord
TTITLE6=After Dark
TTITLE7=1929
TTITLE8=Thirty Again
TTITLE9=I Don't Have Any Love Around
TTITLE10=More Than This Old Heart Can Take
EXTD=YEAR: 1987
EXTT0=
EXTT1=
EXTT2=
EXTT3=
EXTT4=
EXTT5=
EXTT6=
EXTT7=
EXTT8=
EXTT9=
EXTT10=
PLAYORDER=
